<?xml version="1.0" standalone="no"?>
<!-- Generator: Adobe Fireworks 10, Export SVG Extension by Aaron Beall (http://fireworks.abeall.com) . Version: 0.6.0  -->
<!DOCTYPE svg PUBLIC "-//W3C//DTD SVG 1.1//EN" "http://www.w3.org/Graphics/SVG/1.1/DTD/svg11.dtd">
<svg id="" viewBox="0 0 66 66" style="background-color:#ffffff00" version="1.1"
	xmlns="http://www.w3.org/2000/svg" xmlns:xlink="http://www.w3.org/1999/xlink" xml:space="preserve"
	x="0px" y="0px" width="66px" height="66px"
>
	<g id="Capa%201">
		<path d="M 33.7407 59.2982 C 28.1758 59.2982 22.9971 57.6444 18.6719 54.8021 L 8.1479 58.1475 L 11.5698 48.0571 C 8.293 43.577 6.356 38.0703 6.356 32.125 C 6.356 31.2349 6.4019 30.3574 6.4858 29.4896 C 7.8257 15.7373 19.5371 4.9492 33.7417 4.9492 C 48.1221 4.9492 59.9419 16.0078 61.0371 30.0005 C 61.0908 30.7007 61.1279 31.4082 61.1279 32.1226 C 61.1279 47.1084 48.8398 59.2982 33.7407 59.2982 L 33.7407 59.2982 ZM 66.2959 31.3042 C 65.854 13.8345 51.4561 -0.1968 33.7417 -0.1968 C 16.231 -0.1968 1.9541 13.5122 1.2017 30.7025 C 1.1807 31.1763 1.166 31.6494 1.166 32.1279 C 1.166 38.2329 2.873 43.9424 5.8389 48.8154 L -0.0391 66.1592 L 17.9961 60.4282 C 22.666 62.9901 28.0308 64.4502 33.7417 64.4502 C 51.7339 64.4502 66.3159 49.9795 66.3159 32.1279 C 66.3159 31.8511 66.3027 31.5801 66.2959 31.3042 L 66.2959 31.3042 Z" fill="#ffffff"/>
		<path d="M 48.6597 38.6455 C 47.8608 38.2484 43.9331 36.3306 43.2007 36.0698 C 42.4697 35.8065 41.937 35.6729 41.4038 36.4647 C 40.873 37.2588 39.3418 39.0425 38.875 39.5687 C 38.4097 40.0985 37.9448 40.1665 37.147 39.77 C 36.3491 39.375 33.7749 38.5371 30.7261 35.8374 C 28.3521 33.7378 26.7471 31.145 26.2837 30.3511 C 25.8179 29.5596 26.2358 29.1312 26.6328 28.7357 C 26.9951 28.3809 27.4321 27.8101 27.832 27.3491 C 27.9497 27.2147 28.0391 27.0908 28.1221 26.9686 C 28.3179 26.6753 28.4429 26.4004 28.6309 26.0277 C 28.8989 25.499 28.7637 25.0366 28.5649 24.6382 C 28.3657 24.2427 26.7671 20.3418 26.104 18.7559 C 25.437 17.1685 24.7739 17.4354 24.3057 17.4354 C 23.8389 17.4354 23.3091 17.3701 22.7759 17.3701 C 22.2417 17.3701 21.3779 17.5687 20.647 18.3623 C 19.915 19.1553 17.8511 21.0703 17.8511 24.9683 C 17.8511 25.8882 18.0151 26.8003 18.2637 27.666 C 19.0679 30.4647 20.8071 32.7598 21.1128 33.1626 C 21.5088 33.688 26.6357 41.9502 34.75 45.124 C 42.8711 48.2954 42.8711 47.2383 44.3359 47.1055 C 45.7979 46.973 49.0591 45.1904 49.7261 43.3374 C 50.3892 41.4883 50.3892 39.8994 50.1899 39.5687 C 49.9878 39.2407 49.458 39.0425 48.6597 38.6455 L 48.6597 38.6455 Z" fill="#ffffff"/>
	</g>
</svg>